<?xml version="1.0" encoding="utf-8"?>
<svg xmlns="http://www.w3.org/2000/svg" width="280" height="280" viewBox="0 0 280 280" fill="none">
<g clip-path="url(#clip0_450_15428)">
<path d="M212.917 163.334H26.25C21.42 163.334 17.5 159.414 17.5 154.584V49.584C17.5 44.7482 21.42 40.834 26.25 40.834H189.583C194.413 40.834 198.333 44.7482 198.333 49.584V81.6673H180.833V58.334H35V145.834H212.917V163.334Z" fill="#1976D2"/>
<path d="M113.75 122.499C125.026 122.499 134.167 113.358 134.167 102.083C134.167 90.8069 125.026 81.666 113.75 81.666C102.474 81.666 93.3333 90.8069 93.3333 102.083C93.3333 113.358 102.474 122.499 113.75 122.499Z" fill="#1976D2"/>
<path d="M204.167 134.166V174.999L233.333 154.583L204.167 134.166Z" fill="#1976D2"/>
<path d="M128.333 169.166H99.1667C99.1667 178.832 91.3325 186.666 81.6667 186.666H64.1667V204.166H163.333V186.666H145.833C136.168 186.666 128.333 178.832 128.333 169.166Z" fill="#1976D2"/>
<path d="M128.333 157.5H99.1667V169.167H128.333V157.5Z" fill="#1976D2"/>
<path d="M175 210V230.417C175 235.247 178.92 239.167 183.75 239.167H253.75C258.58 239.167 262.5 235.247 262.5 230.417V210H175ZM227.5 227.5H210V221.667H227.5V227.5Z" fill="#1976D2"/>
<path d="M253.75 93.334H119.583V110.834H245V210.001H192.5V175.001H175V218.751C175 223.581 178.92 227.501 183.75 227.501H210V221.667H227.5V227.501H253.75C258.58 227.501 262.5 223.581 262.5 218.751V102.084C262.5 97.2482 258.58 93.334 253.75 93.334Z" fill="#1976D2"/>
</g>
<defs>
<clipPath id="clip0_450_15428">
<rect width="280" height="280" fill="white"/>
</clipPath>
</defs>
</svg>