<?xml version="1.0" encoding="utf-8"?>
<!-- Generator: Adobe Illustrator 19.2.1, SVG Export Plug-In . SVG Version: 6.00 Build 0)  -->
<svg version="1.1" id="layer" xmlns="http://www.w3.org/2000/svg" xmlns:xlink="http://www.w3.org/1999/xlink" x="0px" y="0px"
	 viewBox="0 0 652 652" style="enable-background:new 0 0 652 652;" xml:space="preserve">
<style type="text/css">
	.st0{fill:#444444;}
	.st1{fill:#778EB1;}
	.st2{fill:#929292;}
	.st3{fill:#BFBFBF;}
</style>
<path class="st0" d="M210.5,326.1c0-9-8.8-11-16.2-11c-5.1,0-9.8,1.4-14.9,3.9l-3.9-7.8c8.3-3.4,14.5-4.1,19.5-4.1
	c13,0,24.9,5.6,24.9,18.6V363h-8.6v-5.9c-4.7,5.1-10,7.1-17.3,7.1c-13,0-23.5-7.3-23.5-19.6c0-9.8,8.5-18.6,23.3-18.6
	c5.8,0,11.7,1.7,16.6,6.3L210.5,326.1L210.5,326.1z M195.6,333.7c-11.3,0-15.2,5.6-15.2,10.8s3.9,10.8,15.2,10.8
	c11.3,0,15.2-5.6,15.2-10.8S206.9,333.7,195.6,333.7z M308.6,329.2c0-9.5-5.4-13.5-11.8-13.5c-7.8,0-13.5,4.9-13.5,14v33h-9.3v-33.5
	c0-9.5-5.4-13.5-11.8-13.5c-7.8,0-13.5,4.9-13.5,14v33h-9v-54.5h9.3v6.4h0.2c2.5-5.6,9.3-7.8,14.9-7.8c5.4,0,11.5,1.5,15.9,9.5
	c3.2-6.9,10.5-9.5,17.6-9.5c11.7,0,20.8,7.1,20.8,21.3v34.3h-9.3L308.6,329.2L308.6,329.2z M340.9,299.7c0-11.3,7.8-16.7,18.6-17.4
	v9.5h-1.9c-4.7,0-7.3,3.9-7.3,8.6v7.4h8.8v8.3h-8.8v46.2h-9.3v-46h-8.5V308h8.3V299.7z M146.9,308.2h9.3l0.3,61.4
	c0,14-9.1,18.9-19.5,18.9h-3.4v-8.8c2.5,0.2,3.4,0.2,3.4,0.2c9.1,0,10-5.1,10-9.6C147,370.1,146.9,308.2,146.9,308.2z M151.4,284.4
	c3.7,0,6.4,2.9,6.4,6.6c0,3.7-2.9,6.6-6.4,6.6s-6.6-2.9-6.6-6.6C144.8,287.2,147.7,284.4,151.4,284.4z"/>
<path class="st1" d="M26.3,272.9c-2.7,0-4.9,2.2-4.9,4.9v34c0,2.7,2.2,4.9,4.9,4.9h17.1c7.8,0,18.6-1.7,21.7-15.6
	c0,0,2.9-14,4.7-22.2c0.5-3-1.7-5.9-4.9-5.9H26.3V272.9z M91.9,289.1c-11.7,0-18.4,4.9-21.5,15.2l-8.1,24.9
	c-2.9,8.3-7.6,11.7-16.4,11.7h-20c-2.5,0-4.6,2-4.6,4.6v12.7c0,2.5,1.9,4.4,4.4,4.4h80.7c2.5,0,4.6-2,4.6-4.6v-64.4
	c0-2.5-1.9-4.4-4.4-4.4C106.6,289.1,91.9,289.1,91.9,289.1z"/>
<path class="st2" d="M439.2,292.5h19.1c14.7,0,23.3,11.5,23.3,23.2c0,11.8-8.8,23.2-23.3,23.2h-10.5v23.9H439L439.2,292.5
	L439.2,292.5z M456.4,331c10.5,0,16.4-5.1,16.4-15.2s-6.1-15.4-16.4-15.4H448v30.8h8.5V331z M502.3,332.6v29.9h-8.8v-70h20.1
	c13.4,0,23.2,7.8,23.2,21.1c0,12.5-9.6,20.3-21,20.8l27.1,27.9h-12.3L502.3,332.6z M502.3,327.3c1.2,0.2,2.5,0.2,7.6,0.2
	c13.4,0,18.1-5.9,18.1-13.5c0-8.3-5.6-13.5-14.7-13.5h-11V327.3z M584.6,291.5c23.5,0,36.7,18.8,36.7,36c0,17.4-13.2,36-36.7,36
	c-23.5,0-36.7-18.8-36.7-36S561.1,291.5,584.6,291.5z M584.6,355.2c14,0,27.6-11.2,27.6-27.7s-13.4-27.7-27.6-27.7
	c-14,0-27.6,11.2-27.6,27.7S570.6,355.2,584.6,355.2z"/>
<path class="st3" d="M399.4,406c-0.7,0-1.4-0.5-1.4-1.4V238.2c0-0.7,0.5-1.4,1.4-1.4c0.8,0,1.4,0.5,1.4,1.4v166.6
	C400.8,405.5,400.1,406,399.4,406z"/>
</svg>
