<svg clip-rule="evenodd" fill-rule="evenodd" stroke-linejoin="round" stroke-miterlimit="2" viewBox="0 0 560 400" xmlns="http://www.w3.org/2000/svg"><g transform="matrix(2.84212 0 0 2.84212 99.5254 146)"><path d="m10.892.035c-1.13 0-2.217.449-3.015 1.246l-6.462 6.446c-.798.796-1.248 1.88-1.248 3.007v27.266l116.01-.068c1.129 0 2.217-.449 3.014-1.246l6.39-6.373c.798-.797 1.249-1.881 1.249-3.007l.003-27.272z" fill="#00d15f" fill-rule="nonzero"/><g fill="#fff"><path d="m.167 13.502.012 24.488 43.276-.025s4.81.22 8.551-.606c6.874-1.516 10.967-4.422 16.085-9.525 8.632-8.61 27.964-27.834 27.964-27.834l-42.325.005-29.157 28.963s-1.863 2.078-4.382 2.079c-1.884.001-2.961-.758-4.366-2.053-.41-.38-15.658-15.48-15.658-15.492z" fill-opacity=".2" fill-rule="nonzero"/><path d="m18.529 28.233-8.751-18.229h3.944s6.255 13.048 6.408 13.71h.076c.157-.662 6.408-13.71 6.408-13.71h3.982l-8.751 18.229zm29.016-7.717h-14.173c.51 2.96 2.693 4.829 5.507 4.829 2.306 0 3.826-.898 4.606-2.571h3.669c-1.095 3.465-4.254 5.84-8.28 5.84-5.311 0-9.214-3.853-9.214-9.504 0-5.608 3.825-9.504 9.214-9.504 4.803 0 8.746 4.091 8.746 9.504.003.546.003.86-.075 1.406zm-14.135-2.961h10.505c-.233-2.495-2.263-4.672-5.036-4.672-2.814-.004-4.925 1.831-5.469 4.672zm33.579 2.961h-14.174c.509 2.96 2.692 4.829 5.506 4.829 2.306 0 3.826-.898 4.607-2.571h3.668c-1.095 3.465-4.254 5.84-8.28 5.84-5.311 0-9.214-3.853-9.214-9.504 0-5.608 3.826-9.504 9.214-9.504 4.803 0 8.747 4.091 8.747 9.504.002.546.002.86-.074 1.406zm-14.135-2.961h10.505c-.234-2.495-2.263-4.672-5.036-4.672-2.816-.004-4.921 1.831-5.469 4.672zm34.011 1.559v9.115h-3.163l-.314-2.843c-1.406 2.106-3.864 3.232-6.093 3.232-4.999 0-8.786-3.972-8.786-9.504 0-5.451 4.059-9.505 9.252-9.505 4.769 0 9.104 3.427 9.104 9.505zm-3.598 0c0-4.011-2.653-6.23-5.506-6.23-3.125 0-5.66 2.495-5.66 6.23 0 3.74 2.344 6.229 5.66 6.229 2.815 0 5.506-2.337 5.506-6.229zm6.018 9.114v-10.787c0-4.557 2.929-7.827 7.499-7.827 3.668 0 5.622 2.453 5.898 3.312h.076c.271-.856 2.225-3.312 5.898-3.312 4.568 0 7.499 3.27 7.499 7.827v10.788h-3.592v-10.516c0-2.96-1.329-4.752-4.021-4.752-2.696 0-4.021 1.792-4.021 4.829v10.478h-3.592v-10.478c0-3.037-1.329-4.829-4.021-4.829s-4.021 1.792-4.021 4.752v10.516z"/></g></g></svg>